<svg xmlns="http://www.w3.org/2000/svg" viewBox="0 0 100 100">
  <!-- Chessboard background -->
  <rect width="100" height="100" fill="#8B4513"/>
  
  <!-- Light squares -->
  <rect x="0" y="0" width="25" height="25" fill="#f0d9b5"/>
  <rect x="50" y="0" width="25" height="25" fill="#f0d9b5"/>
  <rect x="25" y="25" width="25" height="25" fill="#f0d9b5"/>
  <rect x="75" y="25" width="25" height="25" fill="#f0d9b5"/>
  <rect x="0" y="50" width="25" height="25" fill="#f0d9b5"/>
  <rect x="50" y="50" width="25" height="25" fill="#f0d9b5"/>
  <rect x="25" y="75" width="25" height="25" fill="#f0d9b5"/>
  <rect x="75" y="75" width="25" height="25" fill="#f0d9b5"/>
  
  <!-- Dark squares -->
  <rect x="25" y="0" width="25" height="25" fill="#b58863"/>
  <rect x="75" y="0" width="25" height="25" fill="#b58863"/>
  <rect x="0" y="25" width="25" height="25" fill="#b58863"/>
  <rect x="50" y="25" width="25" height="25" fill="#b58863"/>
  <rect x="25" y="50" width="25" height="25" fill="#b58863"/>
  <rect x="75" y="50" width="25" height="25" fill="#b58863"/>
  <rect x="0" y="75" width="25" height="25" fill="#b58863"/>
  <rect x="50" y="75" width="25" height="25" fill="#b58863"/>
  
  <!-- White King piece -->
  <g transform="translate(50, 50) scale(0.8)">
    <text x="-15" y="15" font-size="40" fill="white" stroke="#333" stroke-width="1">♔</text>
  </g>
</svg>